<svg width="113" height="67" viewBox="0 0 113 67" fill="none" xmlns="http://www.w3.org/2000/svg">
<path d="M3.53251 38.533L10.8873 31.0657C17.0628 24.8047 25.8625 28.6963 29.4904 31.4247L18.4583 42.3384C14.305 45.7274 16.7277 50.3562 18.4583 52.2469L29.6346 63.0889C21.3857 69.9243 13.6271 66.3199 10.6708 63.3761L3.38811 55.9088C-2.8418 47.8097 0.936712 40.9263 3.53251 38.533Z" fill="#3f68fe"/>
<path d="M109.208 42.6389L101.853 50.1062C95.6774 56.3672 86.8777 52.4756 83.2498 49.7472L94.282 38.8334C98.4352 35.4445 96.0125 30.8157 94.282 28.9249L83.1056 18.083C91.3545 11.2476 99.1132 14.852 102.069 17.7958L109.352 25.2631C115.582 33.3622 111.804 40.2455 109.208 42.6389Z" fill="#3f68fe"/>
<path d="M48.9077 65.7115C64.8219 65.1353 81.096 56.4914 81.8165 34.8811C78.5396 -2.99073 39.0914 -5.35551 29.5372 5.92351C29.2321 6.28368 28.1691 7.58027 29.7533 8.4449C31.8416 9.58472 36.3631 10.6753 38.1065 11.326C49.7694 15.6792 53.8048 24.7963 53.5168 31.4234C52.929 37.1201 48.6683 42.039 45.0916 43.8132C42.8592 44.9205 40.6787 43.7651 40.4109 42.4445C39.4027 37.4742 41.7084 34.5208 45.6677 32.9361C46.0277 32.792 46.0437 32.5412 45.6836 32.4319C34.8661 29.1465 27.1061 39.0914 27.737 47.5591C29.5374 59.5888 37.4782 65.2427 48.9077 65.7115Z" fill="#3f68fe"/>
</svg>
