<svg width="400" height="400" viewBox="0 0 400 400" fill="none" xmlns="http://www.w3.org/2000/svg">
<path fill-rule="evenodd" clip-rule="evenodd" d="M319 40.064C350.827 69.6075 377.016 115.2 379 174C379 256.843 314 350 200 350C117.157 350 50 282.843 50 200C50 117.157 117.157 50 200 50L199.997 49.9805C213.342 49.4574 224 38.4734 224 25C224 11.5278 213.344 0.544544 200 0.0196397V0C199.753 0 199.507 0.000446049 199.261 0.00133738C199.174 0.000450004 199.087 5.24521e-06 199 5.24521e-06C198.818 5.24521e-06 198.635 0.00196045 198.454 0.00585107C88.7087 0.836756 0 90.0589 0 200C0 310.457 89.5431 400 200 400C310.457 400 400 310.457 400 200C400 134.119 368.146 75.6786 319 39.2391V40.064Z" fill="white"/>
<path d="M168.308 171.427C162.934 149.591 138.301 141 128 141C144.123 261.366 141.884 270.315 149.498 272.105C183.088 273 195.628 245.258 201.002 231.386C205.302 220.29 213.244 199.915 216.678 191.115L228.77 270.315L229.218 272.105L230.562 273C259.225 269.868 270.422 252.864 274.005 247.047C277.588 241.231 282.962 226.912 289.232 211.698C294.248 199.527 316.552 143.685 316.552 143.685L317 141.447L316.104 141C281.171 141 267.735 178.586 267.735 178.586C266.66 181.45 257.434 212.892 252.955 227.807C252.059 230.492 251.611 228.702 251.611 228.702L240.863 143.685C240.863 143.237 240.413 141.373 238.175 141.447C197.867 142.79 190.245 187.11 183.983 202.749C178.967 215.278 174.13 231.834 172.339 228.702C172.04 213.041 170.816 179.66 168.308 171.427Z" fill="white"/>
</svg>
