<svg xmlns="http://www.w3.org/2000/svg" xmlns:xlink="http://www.w3.org/1999/xlink" viewBox="0 0 619.38 463.49"><defs><style>.cls-1{fill:none;}.cls-2{fill:#192882;}.cls-3,.cls-4,.cls-5{fill:#ff9800;}.cls-4,.cls-5,.cls-6{isolation:isolate;}.cls-5,.cls-6{opacity:0.2;}.cls-28,.cls-6{fill:#fff;}.cls-7{fill:#132660;}.cls-8{fill:#121e60;}.cls-9{fill:#3953d3;}.cls-10{fill:#2537ba;}.cls-11{fill:#021823;}.cls-12{fill:#083c54;}.cls-13{fill:#0f5577;}.cls-14{fill:#0160d4;}.cls-15{fill:#bfbfbf;}.cls-16{fill:#5cadf5;}.cls-17{fill:#8cc6fd;}.cls-18{fill:#021825;}.cls-19{fill:#011925;}.cls-20{fill:#e2e2e2;}.cls-21{fill:#8797d6;}.cls-22{fill:#b3daff;}.cls-23{fill:#012756;}.cls-24{fill:#ccdeef;}.cls-25{fill:#2e4cdb;}.cls-26{fill:#202aab;}.cls-27{fill:#a5a7e0;}.cls-29{fill:#2b48d8;}.cls-30{fill:#1b2677;}.cls-31{fill:#375ce2;}.cls-32{fill:#1a95ff;}.cls-33{fill:#0068c4;}.cls-34{fill:#5ab1ff;}.cls-35{fill:#0067c4;}.cls-36{fill:#1b94ff;}.cls-37{fill:#1d93ff;}.cls-38{fill:#1d96fe;}.cls-39{fill:#5cb2ff;}.cls-40{fill:#a2cff8;}.cls-41{fill:#006ec5;}.cls-42{fill:#94c5f1;}.cls-43{fill:#5eb4ff;}.cls-44{fill:#0f0f0f;}.cls-45{fill:#043347;}.cls-46{fill:#191919;}.cls-47{fill:#ffcda8;}.cls-48{fill:#d19b77;}.cls-49{fill:#2545a0;}.cls-50{fill:#e4b692;}.cls-51{fill:#d29c76;}.cls-52{fill:#0c0c0c;}.cls-53{fill:#95cfff;}.cls-54{fill:#2646bc;}.cls-55{fill:#cce4fc;}.cls-56{fill:#cfe7ff;}.cls-57{fill:#8787c7;}.cls-58{fill:#d19f7a;}.cls-59{fill:#98cefd;}.cls-60{fill:#8878ff;}.cls-61{clip-path:url(#clip-path);}.cls-62{clip-path:url(#clip-path-2);}.cls-63{fill:#1f2fa3;}.cls-64{fill:#022251;}.cls-65{fill:#f7fcff;}.cls-66{fill:#022454;}.cls-67{fill:#dbe8f0;}.cls-68{fill:#b3b1e2;}.cls-69{fill:#012148;}.cls-70{fill:#fbfffe;}.cls-71{fill:#afb1e2;}.cls-72{fill:#f8f9fe;}.cls-73{fill:#e5fef6;}</style><clipPath id="clip-path"><rect class="cls-1" x="226.31" y="131.44" width="5.97" height="97.1" transform="translate(-41.23 288.58) rotate(-60)"/></clipPath><clipPath id="clip-path-2"><rect class="cls-1" x="222.31" y="133.44" width="5.97" height="97.1" transform="translate(-44.96 286.11) rotate(-60)"/></clipPath></defs><g id="Capa_2" data-name="Capa 2"><g id="Capa_1-2" data-name="Capa 1"><path class="cls-2" d="M316.66,425.27a10,10,0,0,1-4.3-19c71.73-34.12,102.89-83.72,83.35-132.69-14.38-36-54.92-66.65-108.44-81.92-62.42-17.79-138.32-14-213.74,10.58a10,10,0,1,1-6.2-19c41.44-13.53,82.61-21.1,122.38-22.49,36.65-1.29,71.31,2.64,103,11.69,60.33,17.2,104.63,51.37,121.53,93.73,11.23,28.13,9.23,57.34-5.78,84.47-16,28.86-45.42,53.66-87.55,73.7A10,10,0,0,1,316.66,425.27Z"/><path class="cls-2" d="M414.49,407.16A6,6,0,0,1,410.2,397c45.42-46.51,52.71-108.62,19-162.1C402,191.66,352.3,160,289.21,145.82c-73.93-16.65-162.9-8.55-257.31,23.42a6,6,0,1,1-3.85-11.36c96.5-32.68,187.72-40.9,263.8-23.76,66.23,14.91,118.62,48.43,147.54,94.36,36.79,58.42,28.89,126.19-20.6,176.87A6,6,0,0,1,414.49,407.16Z"/><path class="cls-2" d="M360.32,451a6,6,0,0,1-2.83-11.3A243.81,243.81,0,0,0,396.66,412,6,6,0,0,1,404.5,421a249.51,249.51,0,0,1-41.37,29.22A6,6,0,0,1,360.32,451Z"/><path class="cls-2" d="M368.48,116.33a2.86,2.86,0,0,1-1.24-.27c-76.33-34.65-178.26-40-266-14a3,3,0,1,1-1.71-5.75c43.69-13,91.7-18.53,138.83-16.11,47.51,2.44,92.94,13,131.37,30.4a3,3,0,0,1-1.24,5.73Z"/><path class="cls-2" d="M510.19,314.65a3,3,0,0,1-3-3c-.52-72.55-45.14-143.28-113.68-180.19a3,3,0,1,1,2.85-5.28c70.43,37.93,116.29,110.72,116.83,185.42a3,3,0,0,1-3,3Z"/><path class="cls-2" d="M432.66,463.49a4.26,4.26,0,0,1-2.94-1.14,3.37,3.37,0,0,1,.17-5.12c29.54-25,64-71.27,72.08-126.35a4,4,0,0,1,4.53-3.12,3.72,3.72,0,0,1,3.48,4.06c-8.37,57-44,104.86-74.55,130.69A4.32,4.32,0,0,1,432.66,463.49Z"/><path class="cls-2" d="M561.42,251.48a1.49,1.49,0,0,1-1.45-1.13c-18.44-74.27-74.6-136.57-158.16-175.43C326.09,39.71,234.87,28,157.8,43.71a1.5,1.5,0,0,1-.6-2.94C234.87,25,326.79,36.72,403.08,72.2c84.39,39.25,141.14,102.26,159.8,177.42a1.5,1.5,0,0,1-1.09,1.82A1.55,1.55,0,0,1,561.42,251.48Z"/><path class="cls-2" d="M378.45,11.25a.47.47,0,0,1-.17,0C363.84,5.8,336.94,2.16,324.73,1a.5.5,0,0,1-.45-.55.51.51,0,0,1,.55-.45c12.25,1.17,39.26,4.83,53.8,10.28a.5.5,0,0,1-.18,1Z"/><path class="cls-2" d="M503.67,69.44a.53.53,0,0,1-.33-.13,117.64,117.64,0,0,0-25.15-17,.5.5,0,1,1,.44-.9A118.71,118.71,0,0,1,504,68.56a.5.5,0,0,1-.33.88Z"/><path class="cls-2" d="M597.37,176.82a.49.49,0,0,1-.46-.3c-9-20.21-32.52-54.85-42.83-65a.49.49,0,0,1,0-.7.5.5,0,0,1,.71,0c10.36,10.2,34,45,43,65.29a.49.49,0,0,1-.25.66A.53.53,0,0,1,597.37,176.82Z"/><path class="cls-2" d="M618.88,251.58a.5.5,0,0,1-.49-.46,166,166,0,0,0-6.81-35.56.48.48,0,0,1,.33-.62.49.49,0,0,1,.62.33A166.47,166.47,0,0,1,619.38,251a.49.49,0,0,1-.45.54Z"/><path class="cls-2" d="M562.91,359.93l-.27,0a1.5,1.5,0,0,1-1.2-1.75c5-27.49,5.69-55.45,2.14-85.47a1.5,1.5,0,0,1,3-.36c3.58,30.33,2.87,58.58-2.17,86.37A1.51,1.51,0,0,1,562.91,359.93Z"/><path class="cls-2" d="M543.12,423.39a1.58,1.58,0,0,1-.63-.13,1.51,1.51,0,0,1-.74-2A293.58,293.58,0,0,0,558,376.41a1.5,1.5,0,0,1,2.9.79,296.42,296.42,0,0,1-16.44,45.32A1.5,1.5,0,0,1,543.12,423.39Z"/><circle id="Ellipse_4" data-name="Ellipse 4" class="cls-3" cx="203.25" cy="36.69" r="18.49"/><circle id="Ellipse_5" data-name="Ellipse 5" class="cls-4" cx="435.68" cy="28.73" r="8.85"/><circle id="Ellipse_5-2" data-name="Ellipse 5" class="cls-5" cx="541.62" cy="196.7" r="25.15"/><circle id="Ellipse_5-3" data-name="Ellipse 5" class="cls-4" cx="541.62" cy="196.7" r="16.35"/><circle id="Ellipse_5-4" data-name="Ellipse 5" class="cls-6" cx="371.48" cy="221.8" r="44.81"/><circle id="Ellipse_5-5" data-name="Ellipse 5" class="cls-4" cx="371.48" cy="221.8" r="23.28"/><circle id="Ellipse_5-6" data-name="Ellipse 5" class="cls-4" cx="354.31" cy="107.09" r="19.15"/><circle id="Ellipse_5-7" data-name="Ellipse 5" class="cls-2" cx="428.62" cy="87.77" r="19.15"/><circle id="Ellipse_5-8" data-name="Ellipse 5" class="cls-7" cx="428.62" cy="87.77" r="11.83"/><circle id="Ellipse_5-9" data-name="Ellipse 5" class="cls-4" cx="556.26" cy="112.48" r="9.7"/><circle id="Ellipse_9" data-name="Ellipse 9" class="cls-3" cx="491.04" cy="384.57" r="34"/><g id="Group_2" data-name="Group 2"><ellipse id="Ellipse_8" data-name="Ellipse 8" class="cls-2" cx="191" cy="301.44" rx="191" ry="110"/><path id="Path_146" data-name="Path 146" class="cls-8" d="M167.51,203,367.89,317.34c2.78,1.81,3,4.83,1.2,7.61,0,0-97.65,56.61-97.85,56.81-3,2-8.83,1.8-11.61,0L66,270a6,6,0,0,1-1.76-8.3l95-57C162.51,202.46,164.73,201.16,167.51,203Z"/><ellipse id="Ellipse_7" data-name="Ellipse 7" class="cls-9" cx="144.5" cy="349.94" rx="81.5" ry="46.5"/><path id="Path_145" data-name="Path 145" class="cls-10" d="M100.5,322.44c32-17.5,88-45,88-45,23.19-13.4,64-22.5,90.5,0,21.5,17,11.5,37.5-19.5,52.5,0,0-75,42.5-84.84,47.83-29.16,13.5-73.16,4.67-87.16-11.33S82.5,330.94,100.5,322.44Z"/><path id="Path_68" data-name="Path 68" class="cls-11" d="M235.57,328.15s.14,4.29.86,5.29,5.71,2.28,10,1.14a27.35,27.35,0,0,0,8.43-4.43l.71-3,3.43-1.86s14-4.85,16.57-7.28,5.14-4.43,6.43-8,.14-8-.86-8.72-11.43,11-11.43,11-22.14,10.57-22.57,11.43-8.28,3.43-8.28,3.43Z"/><path id="Path_67" data-name="Path 67" class="cls-12" d="M233.29,315.87s0,6.57,1.85,10.71,12.72,2,12.72,2,6.71-1.57,8.71-4,10.14-4.86,10.14-4.86,6.43-3,10.29-8,4.43-8,3.86-10.28-5.72-2.72-5.72-2.72l-6,1s-6.28,1.29-8.14,1.72-6.14,7.28-6.14,7.28l-17.15,7.15Z"/><path id="Path_66" data-name="Path 66" class="cls-11" d="M233.29,312.05v4.24a33.92,33.92,0,0,0,10.42,1.15c5.72-.29,10.43-5.39,10.43-5.39s4.29-4.61,4.86-5.47a40,40,0,0,0,1.86-5h-6.72L251,304.87l-5.57,3.28-7.86,1.72Z"/><path id="Path_62" data-name="Path 62" class="cls-13" d="M167.8,270.89l4.6-18.25,2.6-7.2s5.4,7.8,12.2,3,15-15.8,19.6-14.8,11.2.4,14.8,3S243.8,251,243.8,251s-1,11.2,4.2,27.6c5.8,15.8,6.8,19,6.8,20.8s-3.6,10-8.8,11-10.4-7.6-10.4-7.6L220.4,261l-12-7.2-36,21.8Z"/><path id="Path_70" data-name="Path 70" class="cls-14" d="M357.17,205.94s8.5,86.36,11.16,114.83c0-.33-1.08.54-1.08.54l-2.62-.54s-14.63-103-15-103.21-.38-.87-1.38-.87c-.25.12-69.5,40.25-70.87,41.12a15.64,15.64,0,0,0-6.63,12.25c-.12,7.13-2.42,109.54-2.42,109.54H261s-3-107.71-3.2-109.54-1.4-9-5.4-11.22-8.4-5-8.4-5L97,168.44l-11.57-6.29s-2.37,1.2-6,36.49c-2.4,18.8-9.4,66-9.4,66L69,266H66.8c-.55,0,10.4-112.8,10.4-112.8l-1.37-2.47v-1.33l24,14.16s159,92.5,161.5,92.84,4.84,2.33,11.5-1.17S357.17,205.94,357.17,205.94Z"/><path id="Path_10" data-name="Path 10" class="cls-15" d="M155.38,332.81l24.2-11.52s0-.42-2.33-1.35a46.68,46.68,0,0,0-4.43-1.5l-26.07,10.75Z"/><path id="Path_13" data-name="Path 13" class="cls-16" d="M100.75,315.87a6.17,6.17,0,0,0,4.87,7.25l.44.07a8,8,0,0,0,6.69-1.63c1.06-.75,3.69-3.75,2.58-10.12-1.2-1.94-6.9-.5-8.75.5S101.38,312.5,100.75,315.87Z"/><path id="Path_31" data-name="Path 31" class="cls-16" d="M179,322.15c-.57,2,.43,6.14,5.14,7.43,3.57.71,5.57,0,7.61-2,2-1.84,2.68-7.7,0-9.62-1.21-1.94-4.31-1-6.17,0S179.57,320.15,179,322.15Z"/><path id="Path_15" data-name="Path 15" class="cls-16" d="M120.75,390.87a6.17,6.17,0,0,0,4.87,7.25l.44.07a8,8,0,0,0,6.69-1.63c1.06-.75,5.08-4.46,2.42-11.29-1.21-1.94-6.73.67-8.59,1.67S121.38,387.5,120.75,390.87Z"/><path id="Path_143" data-name="Path 143" class="cls-16" d="M63.75,358.87a6.17,6.17,0,0,0,4.87,7.25l.44.07a8,8,0,0,0,6.69-1.63c1.06-.75,5.08-4.46,2.42-11.29-1.21-1.94-6.73.67-8.59,1.67S64.38,355.5,63.75,358.87Z"/><path id="Path_17" data-name="Path 17" class="cls-16" d="M191,369.15c-.57,2,.43,6.14,5.14,7.43,3.57.71,5.57,0,7.61-2,2-1.84,2.68-7.7,0-9.62-1.21-1.94-4.31-1-6.17,0S191.57,367.15,191,369.15Z"/><path id="Path_12" data-name="Path 12" class="cls-17" d="M114.19,312.62c-3.63-1-7.75-1.06-8.75,7.38-2.31-1.06-5.06-2.25-6.81-3.25,1.12-3.5,3-8.69,8.87-7.44s1.94.5,1.94.5l3.62.32A2.54,2.54,0,0,1,114.19,312.62Z"/><path id="Path_32" data-name="Path 32" class="cls-17" d="M193.86,318.87c-9,.94-7.73,2.7-9.61,8.57-1.44-.5-5.19-3.44-5.75-3.67,1.13-3.5.5-7.76,6.93-9.62,4-.71,4,.66,4,.66s3.56-5.94,2.56-1.52S194.23,317.37,193.86,318.87Z"/><path id="Path_65" data-name="Path 65" class="cls-18" d="M223.83,283.3l2.17,1.3s.17,6.5-2.17,10.5a18.45,18.45,0,0,1-9.5,7.67c-3,1-5.5-.34-7.5,3.33s-.33,4-3.5,7.83a8.22,8.22,0,0,1-7.66,4.17c-2.84,0-7.34-3.17-7.34-3.17l2-8.83s17.5-10,18.67-11S223.83,283.3,223.83,283.3Z"/><path id="Path_61" data-name="Path 61" class="cls-12" d="M154.5,284.06s9.92-5.46,16.25-12.12,42.42-26.67,54.08-25.67c5.34.5,6.67,2.17,10,11.33S239,283.94,239,290.1s6.31,19.87,6.81,20.37c-1.28.5-8.14,2.17-11,1.37s-3.43-1.2-3.43-1.9-2.6-14.37-4.8-19.84-7.6-8.66-7.6-8.66l-27,3.8L175.2,295l-17.6,9.2s-5.6-1.6-5.6-2.2S154.5,284.06,154.5,284.06Z"/><path id="Path_64" data-name="Path 64" class="cls-12" d="M187.38,308.1l1.79,2.5a7.81,7.81,0,0,0,5.5,2.84c3.5.16,5.16-1,8-5.34s3.5-3.83,7.83-5.16,12.83-8.84,13.67-14.84a70.56,70.56,0,0,0,.83-8.33l-9.17-.83-21.16,12-8.17,12Z"/><path id="Path_14" data-name="Path 14" class="cls-17" d="M135.31,385.69c-3.62-1-7.62-.38-8.62,8.06-1.44-.5-6.63-1.75-7.19-2,1.13-3.5,1.83-10.17,9-9.46s1.94.5,1.94.5h3.12S135.69,384.19,135.31,385.69Z"/><path id="Path_144" data-name="Path 144" class="cls-17" d="M78.31,353.69c-3.62-1-7.62-.38-8.62,8.06-1.44-.5-6.63-1.75-7.19-2,1.13-3.5,1.83-10.17,9-9.46s1.94.5,1.94.5h3.12S78.69,352.19,78.31,353.69Z"/><path id="Path_63" data-name="Path 63" class="cls-19" d="M188.7,297.77a16.92,16.92,0,0,0,13.8-1.83c7-4.34,9-8.84,10.67-14.34s-5.67,0-5.67,0l-13.33,8.67-5.47,5.67Z"/><path id="Path_16" data-name="Path 16" class="cls-17" d="M205.86,365.87c-4.86-1-5.57,1.57-8.43,7.42-1.44-.5-6.37-2.29-6.93-2.52,1.12-3.5.5-7.76,6.93-9.62,4-.71,4,.66,4,.66s3.56-5.94,2.56-1.52S206.23,364.37,205.86,365.87Z"/><path id="Path_11" data-name="Path 11" class="cls-15" d="M135.5,340.81s-53.81,7.44-55.62,8.38c-1.16.56-1,1.25-1.88,1.75-.28.34-3.25.9-5.12.5s-1.35-6.5-1.35-6.5l56.35-12h7Z"/><path id="Path_8" data-name="Path 8" class="cls-15" d="M127.16,378.62a2.88,2.88,0,0,0,3.8.57c2.3-1.28,10-48.41,15.42-44.1-.16,0-.13-.13,0-.12s.37,4.84,0,7.72c-4.63,12.25-10.31,33.06-12.63,39.81-2.12,2.38-5.75,1.44-5.93-.25C127.5,381,127.16,378.62,127.16,378.62Z"/><path id="Path_9" data-name="Path 9" class="cls-20" d="M146.34,342.66c15.09,2.66,53.66,19.86,55.83,19.86a4.12,4.12,0,0,0,3.16-1.25l.19-6.63-2.6,2.13s-53.51-21.33-55-21.68a10.77,10.77,0,0,0-2.28-.65A78.13,78.13,0,0,0,146.34,342.66Z"/><path id="Path_18" data-name="Path 18" class="cls-21" d="M129.5,324.06a18.16,18.16,0,0,0,7.13-.87c3.37-1.25,10.62-5.09,10.62-5.09l-.37,9.46s-8.13,7-15.75,1.5C128.5,325.81,129.5,324.06,129.5,324.06Z"/><path id="Path_7" data-name="Path 7" class="cls-22" d="M132.5,377.44c.83-1.63,7.75-30,10.67-39.09a5,5,0,0,1,1.58-2.41,3.56,3.56,0,0,1,3-.54c25.17,9.29,40.93,16.25,54.91,21.65a1.14,1.14,0,0,0,1-.08s1.44-1.64,1.87-2.27a.19.19,0,0,0-.14-.24h0l-56.86-25.2,24.67-10.81-12.73-1.88-13.38,4.25-.56,6.63s-3.37,3.75-10.44,3.25c-6.81-.38-6.65-6.22-6.65-6.22l-1.22-.1-1,4.88s-51.94,12.31-53.94,13.56c-.5.25-2.12,1.19-1.62,2.46.43.9,1.43.85,6.7,0,9-2.15,51.67-13.17,54.17-11.17s1.33,7,1.33,7.67-5.83,30.88-6.64,36c0,.65-.5,1.94,1.69,1.87S131.38,379.87,132.5,377.44Z"/><path id="Path_72" data-name="Path 72" class="cls-23" d="M101.75,164.94s-.87,2.12-1.37,3.75c0,.12-22.5-13.4-23.38-15.65a23.52,23.52,0,0,1-1.12-3.48h0Z"/><path id="Path_73" data-name="Path 73" class="cls-23" d="M182.56,209.33l82.57,45.61,4.39-2.47,87.61-49.16,1.37,16.25,9.75,100.13-1,1s-11.37-98.25-11.87-100.63-2.25-4.37-5.38-3.87-23.12,13-23.12,13l-43.13,24.87-6,3.5s-5.5,3.25-6.5,9.38c-.37,1.37-.75,10-.75,10l-2.12,102.5H266.5s-.25-105-.62-110c-1.13-6.75-5.88-8.75-6.88-9.5s-75.87-44.13-75.87-44.13l-2-7.75Z"/><path id="Path_69" data-name="Path 69" class="cls-24" d="M174.1,88.21,359.59,194c3.53,2.66,3,9.36,0,11.54l-86.62,49.54a19.38,19.38,0,0,1-13.7-.64C209.36,228.27,77.17,150.47,77.17,150.47c-4.27-1.14-5.26-9.4-1.8-11.4L162.7,89.15C166.75,86.39,174.1,88.21,174.1,88.21Z"/><path id="Path_140" data-name="Path 140" class="cls-25" d="M173.43,91l182.5,102.92c7.16,4.58,3,9,.16,11.08l-83.17,47.45a19,19,0,0,1-13.29-.83c-48.77-25.91-180.9-101.94-180.9-101.94-4.2-2.4-5.09-5.82-2.56-9.18l87.19-49.11C167.24,88.78,173.43,91,173.43,91Z"/><path id="Path_104" data-name="Path 104" class="cls-26" d="M191.16,161l82.17,46.79c1.34,1,1,2.57,0,3.89l-30.09,17.49c-1.25.73-2.54,1.42-4.16.62L158.79,182a3,3,0,0,1-.69-4.15h0L187.5,161S189.82,160,191.16,161Z"/><path id="Path_75" data-name="Path 75" class="cls-27" d="M190.16,157l82.52,45.86c1.34,1,1,3.24,0,4.56l-30.44,17.75c-1.25.73-2.54,1.42-4.16.62L157.79,178a3,3,0,0,1-.69-4.15h0L186.5,157S188.82,156,190.16,157Z"/><path id="Path_74" data-name="Path 74" class="cls-28" d="M190.05,154.13l82.28,46.64A3,3,0,0,1,273,205l-31.11,17.68c-1.27.76-2.56,1.46-4.19.67l-82.33-45.68a3,3,0,0,1-.66-4.19h0l31.67-19.31S188.72,153.16,190.05,154.13Z"/><path id="Path_51" data-name="Path 51" class="cls-29" d="M128.25,159.94s2.25-5.25-13.25-5-19,23.25-18.5,29.75a81.75,81.75,0,0,0,7.5,30.25c6.25,13.75,11,16.25,11,16.25l6.25-44.75Z"/><path id="Path_47" data-name="Path 47" class="cls-30" d="M146.88,286.3s11.79-1.2,23.45-13.86c9.34-7.67,4.67-23.25,5-29.67-.83-8.83-4.66-53-9.33-57.67a37.53,37.53,0,0,1-6.57-8.38s-24.43-16.95-38.1-19.28-34,24.33-12.66,59A533.15,533.15,0,0,1,146.88,286.3Z"/><path id="Path_48" data-name="Path 48" class="cls-31" d="M146.88,268.19c2.37-7.5,4.87-11,4.37-15.75s-11.75-29.25-13.5-39-1.5-32.25,17-36.5c-1.25-.75-18.5-6.5-28-10.25s-8.25-9.25-8.25-9.25a30.78,30.78,0,0,0-16.75,27c.5,13,1.25,19.5,9.75,34s26.25,35.25,26.25,35.25Z"/><path id="Path_20" data-name="Path 20" class="cls-32" d="M75.4,196.64a45.16,45.16,0,0,0,2,14.6c6.9,16.8,8.6,36.2,7.1,50.45-5.1,25.75-6.75,37.5,15.5,48.25s30.2,13.5,36.2,8.5c7.6-5.6,13.6-1.6,17.6-5,1-6.8,3.4-19.2,0-43.8-6.4-18.2-11.8-30.8-18.6-38.2C121.8,223.84,91.3,210.44,75.4,196.64Z"/><path id="Path_26" data-name="Path 26" class="cls-33" d="M125.2,241.64c.3-1.6-50.7-39.6-47.8-30.4,6.9,16.8,37.7,36.75,36.2,51-5.1,25.75-15.45,21.65,6.8,32.4s6.8,25.2,12.8,20.2c7.6-5.6,16.6,2,20.6-1.4,1-6.8,3.4-19.2,0-43.8-6.4-18.2-11.8-30.8-18.6-38.2C120.6,234.84,141.1,255.44,125.2,241.64Z"/><path id="Path_19" data-name="Path 19" class="cls-31" d="M74.5,198.44a47,47,0,0,0,2,15c6.9,16.8,6.5,34,5,48.25-5.1,25.75-6.75,37.5,15.5,48.25s26.6,14.3,32.8,14.3,14.8-3,16.4-5.8c5-1.6,8-24.2,4.6-48.8-6.4-18.2-11.8-31-18.6-37.2C118.8,224.84,90.4,212.24,74.5,198.44Z"/><path id="Path_21" data-name="Path 21" class="cls-34" d="M92,297.64c-7.2-6.4-8-5.6-5.8-23.4s3.6-21.2,3-28.4-2.2-12.6-.8-16.2,6.8-3.2,9.8-2.2,39.8,11,38.4,43.2c-.2,33.4,1.6,44.4-4.6,44.4C115.8,313.64,92,297.64,92,297.64Z"/><path id="Path_22" data-name="Path 22" class="cls-35" d="M105.34,229.92c-4.09-1.5-9.25-3.58-12.15-3.11-1.38.88-1.38,3.13-1.19,5.23.4,5,2.8,19.6,0,30-2.34,8.7-4.55,20.23-2.63,25.55a6.1,6.1,0,0,0,1.57,2.28c6.14,5.9,32.46,24.17,43.66,22.57,2.73-2.17,1.9-11,1.23-15.34.95-14.7.6-37.26,0-37.66s-18.16-22-18.16-22Z"/><path id="Path_23" data-name="Path 23" class="cls-36" d="M101.4,228.84c-9.1-2.27-4.8,0-4,7.6s1.2,14.6,0,22-4.8,20.6-2.4,24c2,6.8,31.86,21.83,41.86,20.43,0-9.29-.34-11.77,0-20.43,0-7.84,2.14-14.34-.86-23.17s-5.43-11.12-7.6-13.23C119.29,236,110.5,231.1,101.4,228.84Z"/><path id="Path_28" data-name="Path 28" class="cls-35" d="M152.33,303.44c.87.6,4.47,3.6,13.47-1.6s15.6-9.8,15.6-9.8l-1.2,8.8s-22,12.6-24.2,12.8-6.38-2.08-6.38-2.08Z"/><path id="Path_27" data-name="Path 27" class="cls-37" d="M150.8,299.44c.86.6,6,3.6,15-1.6s37.7-23.53,37.7-23.53,4.25,1.38,5.25,3.13-13.25,10.62-13.25,10.62-35.9,21.38-38.1,21.58c-2.77.86-6.53,2.55-7.8,0S150.8,299.44,150.8,299.44Z"/><path id="Path_29" data-name="Path 29" class="cls-38" d="M149.24,314s1.64,1,4.51,0,39.5-21.35,43-23.73,10.38-7.87,10.63-8.5-.25,3.75-1.38,5-12,9-15,10.5c-2,.5-33.75,18.75-36.75,19.63s-7.62,0-7.62,0l1.25-2.9Z"/><path id="Path_24" data-name="Path 24" class="cls-39" d="M123.83,323.1c6-.2,10.37.14,16.17-3.66s8.2-9,8.8-21.8.2-25.8-4.6-37.8S130.6,233,130.6,233a1,1,0,0,1,1.14-.86h0l.51.26,1.62,1.52c2.85,2.57,11.83,18.81,14.89,28.32,4.77,11.15,3.4,29.15,3.2,35.35s-2.2,17.2-3.2,18.8-4.3,4.5-8.8,6C135.25,323.85,129.43,325.9,123.83,323.1Z"/><path id="Path_25" data-name="Path 25" class="cls-40" d="M76.2,201.44s18.8,17.8,54.8,32.4a5.49,5.49,0,0,1,1.42-1.34S80.2,206.44,76.2,199.44C74.4,199.44,76.2,201.44,76.2,201.44Z"/><path id="Path_36" data-name="Path 36" class="cls-41" d="M204.5,274.94l12.25-9s-3,7.16,3.05,15.16c-3.18,1.5-9.21,2.5-10.71,2.17S196.2,294.44,191,295.1s0-4.5,0-4.5,6.86-3.5,9.37-5.66,6.36-5,7.87-6.67S204.5,274.94,204.5,274.94Z"/><path id="Path_30" data-name="Path 30" class="cls-34" d="M158.25,313.65l13-6.21,6.88,1.62,4.62-22.5s3.63-.75,4.25-.75,6-3.75,6-3.75l-4.25,28.25h2.5v6.13L184,319.06l-5,2.25-3.62-1.75L165,317.44l-6.12-1-2.75-1.88Z"/><path id="Path_33" data-name="Path 33" class="cls-42" d="M156,314.5l20.25,2.31,6.63-30.87,4.5-.88-8.69,36.69-6.19-2.81-17.19-3.32Z"/><path id="Path_35" data-name="Path 35" class="cls-43" d="M188.38,285.69c5-2.88,17.37-11.38,17.37-11.38s8.34-5.62,8.38-5.62c3.09-2.35,3.37-1.41,3.31-6.69-2.38-2.25-9.19-1.94-10.81-1.31s-5.13,2.37-5.13,2.37-20.37,10.38-26.37,15.88c-.63,4.12,1,4.25,1.62,4.75A12.56,12.56,0,0,0,188.38,285.69Z"/><path id="Path_40" data-name="Path 40" class="cls-44" d="M158,109.44l9.58-1.59-.75,2,7.17-3.16s1,5.75-1.25,7.5,2.5-.42,2.5-.42,0,5.92-5,8.17-10.25-1.5-10.25-1.5Z"/><path id="Path_41" data-name="Path 41" class="cls-45" d="M170,133.28s6.75,3.63,7.2,4c.13.15.33-.17,0,1.67s-3.83,5-5.33,5.16-6.5,0-6.5,0l.66-2s3.7.34,5.16.34a.84.84,0,0,0,.68-.19c1.13-1,3.51-2.72,4-3.31a2.64,2.64,0,0,0,.18-1c-.06-.16-6.53-3-6.53-3Z"/><path id="Path_37" data-name="Path 37" class="cls-46" d="M124.75,129.94s1,16,10.25,17.5,12,.5,13.75-2.5,1.94-4.28,3.94-4.28c3,0,7.9.93,9.69-1.75a12.29,12.29,0,0,0,1.12-9c.5,0,9-1,11.75-7.25-4-1-5.25-.25-7-2.75,2-1,4-3,7-6,.25-.25-5.75.25-5.75,0s1.5-5,4.5-7.25c-.25-.25-8.75,4.25-10.5,3.5s2.58-2.5,3.83-2.25-1.58-1.25-14.58,0-15.75,2.75-25.25,12C125,122.44,124.75,129.94,124.75,129.94Z"/><path id="Path_43" data-name="Path 43" class="cls-47" d="M163.86,130.29s6.43-1.71,7.28-2.71-1.43,7.29-1.71,8.29-1,2.71-1,2.71a57.11,57.11,0,0,1-1.71,6.57c-.58,1.14-2.15,4-2.15,5.14a7.41,7.41,0,0,1-1.13,3.83c-.72,1-.15,1.89-1.72,2.6s-5.94,0-7.34-.28a4.54,4.54,0,0,0-2.66,4c.14,2.14-.59.18-4.3-1.25A73.1,73.1,0,0,0,130,154.12l.71-9s2.72,4.43,15,3.29c2.43-.29,3.86-5.53,6-6.81,2.29-1.75,4.88,0,7.88-1C164.88,139.48,163.86,130.29,163.86,130.29Z"/><path id="Path_44" data-name="Path 44" class="cls-48" d="M130.59,145.19a19.74,19.74,0,0,0,10.08,3.33,34.18,34.18,0,0,0,5.16,0c1.84-.17,2.75-3,4.17-5,1.17-1.5,1.67-2,3.17-2.5-.79.67-.84,3.08,0,5.67a13.77,13.77,0,0,1,.91,6,5.74,5.74,0,0,0,0,2.91c0,.07.37.51.28.82-1.06.47-2.89,2.28-2.62,4.2a1.2,1.2,0,0,1-.13.72c-.25.17-1.86-1.19-3.64-2.06.11-1.27-5.42-9.72-17.5-10.22C130.47,147.81,130.59,145.19,130.59,145.19Z"/><path id="Path_34" data-name="Path 34" class="cls-49" d="M188.38,282.69c5-2.88,19.25-12.88,19.25-12.88l8.37-5.37s3-2.13.63-4.38-8.38-3-10-2.37-5.13,2.37-5.13,2.37-20.37,12.25-26.37,17.75c-.63,1.88,1,2.38,1.62,2.88A12.56,12.56,0,0,0,188.38,282.69Z"/><path id="Path_45" data-name="Path 45" class="cls-50" d="M154.13,151s2.54,2.32,3.62,2.57,4.55,2.74,4.55,2.74-.22,1-4.55.6c-1.33-.14-2.37-.33-3.39-.52a4.69,4.69,0,0,0-.42-1.19,6.46,6.46,0,0,1,.12-2.9A3.36,3.36,0,0,0,154.13,151Z"/><path id="Path_46" data-name="Path 46" class="cls-51" d="M163.59,135.58l6.54-2.2q.8-3,1.31-6c-1.64-.77-7.43,3.07-7.85,2.9A15.54,15.54,0,0,1,163.59,135.58Z"/><path id="Path_38" data-name="Path 38" class="cls-52" d="M125.75,123.77s14.08,13.08,49.33-.92c0,.87-.67,8.62-29.83,10.34-6,.5-19.67-3.75-20.42-5C125.25,123.85,125.75,123.77,125.75,123.77Z"/><path id="Path_39" data-name="Path 39" class="cls-52" d="M124.85,131.94a21.27,21.27,0,0,0,15.15,5c7.75-1.25,19.5-2,18.58,6.66-.09-.07-.67.32-1,0a3.26,3.26,0,0,0-3.61-2.79c-1.31.38-2.46.4-5.63,5.31-1.5,3.44-4,2.85-10.72,2.22C129.31,147.41,125.75,139.69,124.85,131.94Z"/><path id="Path_42" data-name="Path 42" class="cls-53" d="M156,141.15l20.71-3.29-1.14,1.72s-9.43,1.14-10.14,1.57a31.38,31.38,0,0,1-7.86,1.43A1.69,1.69,0,0,1,156,141.15Z"/><path id="Path_49" data-name="Path 49" class="cls-54" d="M142.42,199.44a27.06,27.06,0,0,1,2.33-12c2-5.25,11.75-14.5,25.25-2.5,11.25,10,12.25,30.75,21.5,41.5,2.25-1.5,15.28-13.72,17-14.72s7.72.73,9.91,2.22,4.56,6.5,4.56,7.5-31.5,30.75-33.5,31.25-7,3.25-12.75-1.5c-4-6-22.75-34.5-24.5-35.75s-9.16-3.25-9.83-7.25A33.72,33.72,0,0,1,142.42,199.44Z"/><path id="Path_52" data-name="Path 52" class="cls-55" d="M123.83,157.44l31.67,16s-1.08-8.17-3.58-11.92c-2.5-2.25-13.34-6.33-21.84-7.83C127.33,154.44,123.83,157.44,123.83,157.44Z"/><path id="Path_53" data-name="Path 53" class="cls-56" d="M211.72,211.5c.75-.92.14-1.13.33-1.69s11.2-3.62,15.2,5.88c-.5-.25-4.44,4.9-4.44,4.9s-2.31-5.65-5.06-7.15A16.06,16.06,0,0,0,211.72,211.5Z"/><path id="Path_76" data-name="Path 76" class="cls-57" d="M228.78,189.78l3.3,2c.12.13.25.24-.05.51l-2.5,1.43c-.39.41-.53.21-.53.21l-3.49-2c-.26-.25.2-.59.2-.59s2.22-1.14,2.35-1.27C228.37,189.73,228.53,189.61,228.78,189.78Z"/><path id="Path_57" data-name="Path 57" class="cls-58" d="M226.13,192.47a2.32,2.32,0,0,1,2-.6c.28,0,.48.5.43,1.13s-.56,1-1.09,1.56a5.42,5.42,0,0,1-3,1.69c-1.31.19-2.78.22-1.28-1S225,193.3,226.13,192.47Z"/><path id="Path_58" data-name="Path 58" class="cls-58" d="M230.13,193.47a3.5,3.5,0,0,1,2.09-.94c.28,0,.42.84.37,1.47s-.56,1-1.09,1.56-.87,3.07-2.19,3.25-3.59-1.34-2.09-2.53S229,194.3,230.13,193.47Z"/><path id="Path_56" data-name="Path 56" class="cls-59" d="M224,211.19c-1.25,1.58-3.89,4.51-3.89,4.5a27.74,27.74,0,0,1,2.72,4.92c.66-.42,3.49-4.57,4.58-5C226.88,214.62,225.39,211.85,224,211.19Z"/><path id="Path_60" data-name="Path 60" class="cls-60" d="M119.17,158.1c.57,1.79-.17,4.9,10.12,8.19s23.38,9,26.71,10a25.45,25.45,0,0,1,5.44,3.37,36.19,36.19,0,0,0-3.3-4.65c-8.68-5-22.64-12.07-32.81-16.9C120.67,156.56,120.83,158.1,119.17,158.1Z"/><path id="Path_142" data-name="Path 142" class="cls-57" d="M235.9,193.78l3.3,2c.13.13.26.24,0,.51l-2.5,1.43c-.39.41-.53.21-.53.21l-3.48-2c-.26-.25.2-.59.2-.59s2.21-1.14,2.34-1.27C235.49,193.73,235.65,193.61,235.9,193.78Z"/><path id="Path_71" data-name="Path 71" class="cls-23" d="M85.12,161.36s-6.37-.67-6.87,5.33-9.75,81.5-9.75,81.5l-1.75,16.75v1.12H68.5l1.5-1.12,6-41.13,5.38-41.37s1.5-10.63,2.25-14.38S85.12,161.36,85.12,161.36Z"/><path id="Path_50" data-name="Path 50" class="cls-31" d="M220.09,215.69s-23.84,23.5-29.59,24-9.5-1.5-10.5-5.25c-3.5-6.5-9-32.25-23.75-36.5-9.5-2.5-13.75,0-13.75,0s1.08-17.59,11.83-18.84c11-1.75,17.67,7.84,17.67,7.84s4.25,4.5,8,13.75c4.25,8.75,5,20.25,11.75,25.25,2.25-2,16.5-14,17-14.5C217.47,211,220.09,215.69,220.09,215.69Z"/><path id="Path_59" data-name="Path 59" class="cls-58" d="M236.13,195.47a3.15,3.15,0,0,1,2.28-.75c.28,0,.39,1,.34,1.65s-1.44.5-1.94,1.63-1.47,3.47-2.78,3.65-2.31-2.18-.81-3.37S235,196.3,236.13,195.47Z"/><g class="cls-61"><g id="Repeat_Grid_1" data-name="Repeat Grid 1"><path id="Path_76-2" data-name="Path 76-2" class="cls-57" d="M189,155.26l3.91,2.32c.15.14.29.15.07.41l-1.52,1.25c-.29.25-.48.06-.48.06l-4-2.42c-.31-.26.15-.57.15-.57l.94-.73C188.53,155.27,188.69,155.06,189,155.26Z"/><path id="Path_76-3" data-name="Path 76-3" class="cls-57" d="M195,158.76l3.91,2.32c.16.14.29.15.07.41l-1.52,1.25c-.29.25-.47.06-.47.06l-4-2.42c-.31-.26.16-.57.16-.57s.83-.66.94-.73C194.59,158.77,194.76,158.56,195,158.76Z"/><path id="Path_76-4" data-name="Path 76-4" class="cls-57" d="M201.11,162.26s3.9,2.32,3.9,2.32c.16.14.3.15.07.41l-1.52,1.25c-.29.25-.47.06-.47.06l-4-2.42c-.31-.26.16-.57.16-.57l.94-.73C200.65,162.27,200.82,162.06,201.11,162.26Z"/><path id="Path_76-5" data-name="Path 76-5" class="cls-57" d="M207.17,165.76l3.9,2.32c.16.14.3.15.07.41l-1.52,1.25c-.29.25-.47.06-.47.06l-4-2.42c-.31-.26.16-.57.16-.57l.94-.73C206.71,165.77,206.88,165.56,207.17,165.76Z"/><path id="Path_76-6" data-name="Path 76-6" class="cls-57" d="M213.23,169.26l3.91,2.32c.15.14.29.15.06.41l-1.51,1.25c-.29.25-.48.06-.48.06l-4-2.42c-.32-.26.15-.57.15-.57l.94-.73C212.78,169.27,212.94,169.06,213.23,169.26Z"/><path id="Path_76-7" data-name="Path 76-7" class="cls-57" d="M219.29,172.76l3.91,2.32c.15.14.29.15.07.41l-1.52,1.25c-.29.25-.48.06-.48.06l-4-2.42c-.31-.26.16-.57.16-.57l.93-.73C218.84,172.77,219,172.56,219.29,172.76Z"/><path id="Path_76-8" data-name="Path 76-8" class="cls-57" d="M225.35,176.26l3.91,2.32c.16.14.29.15.07.41l-1.52,1.25c-.29.25-.47.06-.47.06l-4-2.42c-.31-.26.16-.57.16-.57s.83-.66.94-.73C224.9,176.27,225.07,176.06,225.35,176.26Z"/><path id="Path_76-9" data-name="Path 76-9" class="cls-57" d="M231.42,179.76l3.9,2.32c.16.14.3.15.07.41l-1.52,1.25c-.29.25-.47.06-.47.06l-4-2.42c-.31-.26.16-.57.16-.57l.94-.73C231,179.77,231.13,179.56,231.42,179.76Z"/><path id="Path_76-10" data-name="Path 76-10" class="cls-57" d="M237.48,183.26l3.91,2.32c.15.14.29.15.06.41l-1.52,1.25c-.29.25-.47.06-.47.06l-4-2.42c-.32-.26.15-.57.15-.57l.94-.73C237,183.27,237.19,183.06,237.48,183.26Z"/><path id="Path_76-11" data-name="Path 76-11" class="cls-57" d="M243.54,186.76l3.91,2.32c.15.14.29.15.07.41L246,190.74c-.29.25-.48.06-.48.06l-4-2.42c-.31-.26.15-.57.15-.57l.94-.73C243.09,186.77,243.25,186.56,243.54,186.76Z"/><path id="Path_76-12" data-name="Path 76-12" class="cls-57" d="M249.6,190.26l3.91,2.32c.15.14.29.15.07.41l-1.52,1.25c-.29.25-.47.06-.47.06l-4-2.42c-.31-.26.16-.57.16-.57s.83-.66.94-.73C249.15,190.27,249.32,190.06,249.6,190.26Z"/><path id="Path_76-13" data-name="Path 76-13" class="cls-57" d="M255.66,193.76l3.91,2.32c.16.14.3.15.07.41l-1.52,1.25c-.29.25-.47.06-.47.06l-4-2.42c-.31-.26.16-.57.16-.57l.94-.73C255.21,193.77,255.38,193.56,255.66,193.76Z"/><path id="Path_76-14" data-name="Path 76-14" class="cls-57" d="M261.73,197.26l3.9,2.32c.16.14.3.15.07.41l-1.52,1.25c-.29.25-.47.06-.47.06l-4-2.42c-.31-.26.16-.57.16-.57l.94-.73C261.27,197.27,261.44,197.06,261.73,197.26Z"/><path id="Path_76-15" data-name="Path 76-15" class="cls-57" d="M267.79,200.76l3.91,2.32c.15.14.29.15.06.41l-1.52,1.25c-.29.25-.47.06-.47.06l-3.95-2.42c-.32-.26.15-.57.15-.57l.94-.73C267.34,200.77,267.5,200.56,267.79,200.76Z"/></g></g><path id="Path_306" data-name="Path 306" class="cls-57" d="M240.9,196.78l3.3,2c.13.13.26.24,0,.51l-2.5,1.43c-.39.41-.53.21-.53.21l-3.48-2c-.26-.25.2-.59.2-.59s2.21-1.14,2.34-1.27C240.49,196.73,240.65,196.61,240.9,196.78Z"/><g class="cls-62"><g id="Repeat_Grid_2" data-name="Repeat Grid 2"><path id="Path_76-16" data-name="Path 76-16" class="cls-57" d="M185.28,157.78l3.3,2c.13.14.25.24-.05.52L186,161.7c-.39.42-.53.22-.53.22l-3.48-2c-.26-.25.2-.59.2-.59s2.21-1.14,2.34-1.27C184.87,157.73,185,157.61,185.28,157.78Z"/><path id="Path_76-17" data-name="Path 76-17" class="cls-57" d="M191.34,161.28l3.3,2c.13.14.26.24,0,.52l-2.5,1.42c-.39.42-.53.22-.53.22l-3.48-2c-.26-.25.2-.59.2-.59s2.21-1.14,2.34-1.27C190.93,161.23,191.09,161.11,191.34,161.28Z"/><path id="Path_76-18" data-name="Path 76-18" class="cls-57" d="M197.4,164.78l3.3,2c.13.14.26.24,0,.52l-2.5,1.42c-.39.42-.53.22-.53.22l-3.49-2c-.26-.25.2-.59.2-.59s2.21-1.14,2.34-1.27C197,164.73,197.15,164.61,197.4,164.78Z"/><path id="Path_76-19" data-name="Path 76-19" class="cls-57" d="M203.47,168.28l3.3,2c.12.14.25.24-.05.52l-2.5,1.42c-.39.42-.53.22-.53.22l-3.49-2c-.26-.25.2-.59.2-.59s2.22-1.14,2.35-1.27C203.06,168.23,203.21,168.11,203.47,168.28Z"/><path id="Path_76-20" data-name="Path 76-20" class="cls-57" d="M209.53,171.78l3.3,2c.13.14.25.24-.05.52l-2.5,1.42c-.39.42-.53.22-.53.22l-3.48-2c-.26-.25.2-.59.2-.59s2.21-1.14,2.34-1.27C209.12,171.73,209.28,171.61,209.53,171.78Z"/><path id="Path_76-21" data-name="Path 76-21" class="cls-57" d="M215.59,175.28l3.3,2c.13.14.25.24,0,.52l-2.5,1.42c-.39.42-.53.22-.53.22l-3.48-2c-.26-.25.2-.59.2-.59s2.21-1.14,2.34-1.27C215.18,175.23,215.34,175.11,215.59,175.28Z"/><path id="Path_76-22" data-name="Path 76-22" class="cls-57" d="M221.65,178.78l3.3,2c.13.14.26.24,0,.52l-2.5,1.42c-.39.42-.53.22-.53.22l-3.48-2c-.26-.25.2-.59.2-.59s2.21-1.14,2.34-1.27C221.24,178.73,221.4,178.61,221.65,178.78Z"/><path id="Path_76-23" data-name="Path 76-23" class="cls-57" d="M227.72,182.28l3.3,2c.12.14.25.24-.05.52l-2.5,1.42c-.39.42-.53.22-.53.22l-3.49-2c-.26-.25.2-.59.2-.59s2.22-1.14,2.34-1.27C227.3,182.23,227.46,182.11,227.72,182.28Z"/><path id="Path_76-24" data-name="Path 76-24" class="cls-57" d="M233.78,185.78l3.3,2c.12.14.25.24-.05.52l-2.5,1.42c-.39.42-.53.22-.53.22l-3.49-2c-.26-.25.21-.59.21-.59s2.21-1.14,2.34-1.27C233.37,185.73,233.53,185.61,233.78,185.78Z"/><path id="Path_76-25" data-name="Path 76-25" class="cls-57" d="M239.84,189.28l3.3,2c.13.14.25.24,0,.52l-2.5,1.42c-.39.42-.53.22-.53.22l-3.48-2c-.26-.25.2-.59.2-.59s2.21-1.14,2.34-1.27C239.43,189.23,239.59,189.11,239.84,189.28Z"/><path id="Path_76-26" data-name="Path 76-26" class="cls-57" d="M245.9,192.78l3.3,2c.13.14.26.24,0,.52l-2.5,1.42c-.39.42-.53.22-.53.22l-3.48-2c-.26-.25.2-.59.2-.59s2.21-1.14,2.34-1.27C245.49,192.73,245.65,192.61,245.9,192.78Z"/><path id="Path_76-27" data-name="Path 76-27" class="cls-57" d="M252,196.28l3.3,2c.13.14.26.24,0,.52l-2.5,1.42c-.39.42-.54.22-.54.22l-3.48-2c-.26-.25.2-.59.2-.59s2.21-1.14,2.34-1.27C251.55,196.23,251.71,196.11,252,196.28Z"/><path id="Path_76-28" data-name="Path 76-28" class="cls-57" d="M258,199.78l3.3,2c.12.14.25.24-.05.52l-2.5,1.42c-.39.42-.53.22-.53.22l-3.49-2c-.26-.25.2-.59.2-.59s2.22-1.14,2.34-1.27C257.62,199.73,257.77,199.61,258,199.78Z"/><path id="Path_76-29" data-name="Path 76-29" class="cls-57" d="M264.09,203.28l3.3,2c.13.14.25.24-.05.52l-2.5,1.42c-.39.42-.53.22-.53.22l-3.49-2c-.26-.25.21-.59.21-.59s2.21-1.14,2.34-1.27C263.68,203.23,263.84,203.11,264.09,203.28Z"/></g></g><path id="Path_76-30" data-name="Path 76-30" class="cls-57" d="M180.45,161.5l5,3.18c.21.19.41.35.07.6l-2.7,1.38c-.42.39-.67.12-.67.12L177,163.4c-.42-.36.12-.64.12-.64s2.23-1.06,2.37-1.17C179.87,161.33,180.06,161.23,180.45,161.5Z"/><path id="Path_77" data-name="Path 77" class="cls-57" d="M175,165.15s5.73,3.69,5.73,3.69c.24.22.47.4.11.63l-2.87,1.27c-.44.38-.73.08-.73.08l-5.87-3.9c-.48-.41.1-.67.1-.67s2.36-1,2.52-1.06A.72.72,0,0,1,175,165.15Z"/><path id="Path_96" data-name="Path 96" class="cls-57" d="M169.19,168.21l8.4,5.35c.34.28.66.52.25.72l-3,1.6a.7.7,0,0,1-.89,0l-8.58-5.37c-.67-.55,0-.74,0-.74l3-1.52A.77.77,0,0,1,169.19,168.21Z"/><path id="Path_76-31" data-name="Path 76-31" class="cls-57" d="M188.34,166.28l3.3,2c.13.13.26.24,0,.51l-2.5,1.43c-.39.41-.53.21-.53.21l-3.48-2c-.26-.25.2-.59.2-.59s2.21-1.14,2.34-1.27C187.93,166.23,188.09,166.11,188.34,166.28Z"/><path id="Path_78" data-name="Path 78" class="cls-57" d="M183.34,170.28l3.3,2c.13.13.26.24,0,.51l-2.5,1.43c-.39.41-.53.21-.53.21l-3.48-2c-.26-.25.2-.59.2-.59s2.21-1.14,2.34-1.27C182.93,170.23,183.09,170.11,183.34,170.28Z"/><path id="Path_54" data-name="Path 54" class="cls-47" d="M226.91,214.62s1.92,0,6.26-4,3.16-3.66,4.16-4.83,2.84-5.17,5.17-7-.5-3-2-2.33-4.33,2.5-5.17,3.83-1.33-1.67,2-3.83-.66-3.17-2.83-1.67-2.67,3.67-3.67,2.83-1.08-2.07.6-3.16,1.23-3.84-2.1-2-3,2.5-4,2.33,5.17-3.5,1.92-3S221,195.1,219,197.6s-2.83,2.34-4,3.34-3.17,6.5-3,8.83a13.19,13.19,0,0,1,9.5,0A10.63,10.63,0,0,1,226.91,214.62Z"/><path id="Path_95" data-name="Path 95" class="cls-57" d="M180.34,175.28l3.3,2c.13.13.26.24,0,.51l-2.5,1.43c-.39.41-.53.21-.53.21l-3.48-2c-.26-.25.2-.59.2-.59s2.21-1.14,2.34-1.27C179.93,175.23,180.09,175.11,180.34,175.28Z"/><path id="Path_55" data-name="Path 55" class="cls-48" d="M212,210.12c4.14-.21,10.7-2.9,14.89,4.57,2-.22,4.81-2.75,6.31-4.1,1-1-1,2.08-6.86-.79s-7.16-3-8.16-2.86-5.13,1-6,1A6.54,6.54,0,0,0,212,210.12Z"/><path id="Path_97" data-name="Path 97" class="cls-57" d="M162.34,171.28l3.3,2c.13.13.26.24,0,.51l-2.5,1.43c-.39.41-.53.21-.53.21l-3.48-2c-.26-.25.2-.59.2-.59s2.21-1.14,2.34-1.27C161.93,171.23,162.09,171.11,162.34,171.28Z"/><path id="Path_76-32" data-name="Path 76-32" class="cls-57" d="M194.4,169.78l3.3,2c.13.13.26.24,0,.51l-2.5,1.43c-.39.41-.53.21-.53.21l-3.48-2c-.26-.25.2-.59.2-.59s2.21-1.14,2.34-1.27C194,169.73,194.15,169.61,194.4,169.78Z"/><path id="Path_79" data-name="Path 79" class="cls-57" d="M189.4,173.78l3.3,2c.13.13.26.24,0,.51l-2.5,1.43c-.39.41-.53.21-.53.21l-3.48-2c-.26-.25.2-.59.2-.59s2.21-1.14,2.34-1.27C189,173.73,189.15,173.61,189.4,173.78Z"/><path id="Path_94" data-name="Path 94" class="cls-57" d="M186.4,178.78l3.3,2c.13.13.26.24,0,.51l-2.5,1.43c-.39.41-.53.21-.53.21l-3.48-2c-.26-.25.2-.59.2-.59s2.21-1.14,2.34-1.27C186,178.73,186.15,178.61,186.4,178.78Z"/><path id="Path_98" data-name="Path 98" class="cls-57" d="M168.4,174.78l3.3,2c.13.13.26.24,0,.51l-2.5,1.43c-.39.41-.53.21-.53.21l-3.48-2c-.26-.25.2-.59.2-.59s2.21-1.14,2.34-1.27C168,174.73,168.15,174.61,168.4,174.78Z"/><path id="Path_76-33" data-name="Path 76-33" class="cls-57" d="M200.47,173.28l3.3,2c.12.13.25.24-.05.51l-2.5,1.43c-.39.41-.53.21-.53.21l-3.49-2c-.26-.25.2-.59.2-.59s2.22-1.14,2.35-1.27C200.06,173.23,200.22,173.11,200.47,173.28Z"/><path id="Path_80" data-name="Path 80" class="cls-57" d="M195.47,177.28l3.3,2c.12.13.25.24-.05.51l-2.5,1.43c-.39.41-.53.21-.53.21l-3.49-2c-.26-.25.2-.59.2-.59s2.22-1.14,2.35-1.27C195.06,177.23,195.22,177.11,195.47,177.28Z"/><path id="Path_93" data-name="Path 93" class="cls-57" d="M192.47,182.28l3.3,2c.12.13.25.24-.05.51l-2.5,1.43c-.39.41-.53.21-.53.21l-3.49-2c-.26-.25.2-.59.2-.59s2.22-1.14,2.35-1.27C192.06,182.23,192.22,182.11,192.47,182.28Z"/><path id="Path_141" data-name="Path 141" class="cls-57" d="M198.47,186.28l3.3,2c.12.13.25.24-.05.51l-2.5,1.43c-.39.41-.53.21-.53.21l-3.49-2c-.26-.25.2-.59.2-.59s2.22-1.14,2.35-1.27C198.06,186.23,198.22,186.11,198.47,186.28Z"/><path id="Path_99" data-name="Path 99" class="cls-57" d="M174.47,178.28l3.3,2c.12.13.25.24-.05.51l-2.5,1.43c-.39.41-.53.21-.53.21l-3.49-2c-.26-.25.2-.59.2-.59s2.22-1.14,2.35-1.27C174.06,178.23,174.22,178.11,174.47,178.28Z"/><path id="Path_76-34" data-name="Path 76-34" class="cls-57" d="M206.53,176.78l3.3,2c.13.13.25.24-.05.51l-2.5,1.43c-.39.41-.53.21-.53.21l-3.49-2c-.26-.25.21-.59.21-.59s2.21-1.14,2.34-1.27C206.12,176.73,206.28,176.61,206.53,176.78Z"/><path id="Path_81" data-name="Path 81" class="cls-57" d="M201.53,180.78l3.3,2c.13.13.25.24-.05.51l-2.5,1.43c-.39.41-.53.21-.53.21l-3.49-2c-.26-.25.21-.59.21-.59s2.21-1.14,2.34-1.27C201.12,180.73,201.28,180.61,201.53,180.78Z"/><path id="Path_92" data-name="Path 92" class="cls-57" d="M189.69,186.88c.06.05,22.74,13.7,22.74,13.7.86.5.58.65.37.8l-2.9,2.32a.6.6,0,0,1-.72,0l-25-15.2c-.85-.49-.5-1.08-.5-1.08s3.18-1.59,3.47-1.6C187.79,185.78,188.2,185.84,189.69,186.88Z"/><path id="Path_100" data-name="Path 100" class="cls-57" d="M180.53,181.78l3.3,2c.13.13.25.24-.05.51l-2.5,1.43c-.39.41-.53.21-.53.21l-3.49-2c-.26-.25.21-.59.21-.59s2.21-1.14,2.34-1.27C180.12,181.73,180.28,181.61,180.53,181.78Z"/><path id="Path_76-35" data-name="Path 76-35" class="cls-57" d="M211.59,180.28l3.3,2c.13.13.25.24,0,.51l-2.5,1.43c-.39.41-.53.21-.53.21l-3.48-2c-.26-.25.2-.59.2-.59s2.21-1.14,2.34-1.27C211.18,180.23,211.34,180.11,211.59,180.28Z"/><path id="Path_82" data-name="Path 82" class="cls-57" d="M206.59,184.28l3.3,2c.13.13.25.24,0,.51l-2.5,1.43c-.39.41-.53.21-.53.21l-3.48-2c-.26-.25.2-.59.2-.59s2.21-1.14,2.34-1.27C206.18,184.23,206.34,184.11,206.59,184.28Z"/><path id="Path_91" data-name="Path 91" class="cls-57" d="M203.59,189.28l3.3,2c.13.13.25.24,0,.51l-2.5,1.43c-.39.41-.53.21-.53.21l-3.48-2c-.26-.25.2-.59.2-.59s2.21-1.14,2.34-1.27C203.18,189.23,203.34,189.11,203.59,189.28Z"/><path id="Path_76-36" data-name="Path 76-36" class="cls-57" d="M217.65,183.78l3.3,2c.13.13.26.24,0,.51l-2.5,1.43c-.39.41-.53.21-.53.21l-3.48-2c-.26-.25.2-.59.2-.59s2.21-1.14,2.34-1.27C217.24,183.73,217.4,183.61,217.65,183.78Z"/><path id="Path_83" data-name="Path 83" class="cls-57" d="M212.65,187.78l3.3,2c.13.13.26.24,0,.51l-2.5,1.43c-.39.41-.53.21-.53.21l-3.48-2c-.26-.25.2-.59.2-.59s2.21-1.14,2.34-1.27C212.24,187.73,212.4,187.61,212.65,187.78Z"/><path id="Path_90" data-name="Path 90" class="cls-57" d="M209.65,192.78l3.3,2c.13.13.26.24,0,.51l-2.5,1.43c-.39.41-.53.21-.53.21l-3.48-2c-.26-.25.2-.59.2-.59s2.21-1.14,2.34-1.27C209.24,192.73,209.4,192.61,209.65,192.78Z"/><path id="Path_76-37" data-name="Path 76-37" class="cls-57" d="M222.72,186.28l3.3,2c.12.13.25.24-.05.51l-2.51,1.43c-.39.41-.53.21-.53.21l-3.48-2c-.26-.25.2-.59.2-.59s2.21-1.14,2.34-1.27C222.3,186.23,222.46,186.11,222.72,186.28Z"/><path id="Path_84" data-name="Path 84" class="cls-57" d="M217.72,190.28l3.3,2c.12.13.25.24-.05.51l-2.51,1.43c-.39.41-.53.21-.53.21l-3.48-2c-.26-.25.2-.59.2-.59s2.21-1.14,2.34-1.27C217.3,190.23,217.46,190.11,217.72,190.28Z"/><path id="Path_89" data-name="Path 89" class="cls-57" d="M214.72,195.28l3.3,2c.12.13.25.24-.05.51l-2.51,1.43c-.39.41-.53.21-.53.21l-3.48-2c-.26-.25.2-.59.2-.59s2.21-1.14,2.34-1.27C214.3,195.23,214.46,195.11,214.72,195.28Z"/><path id="Path_76-38" data-name="Path 76-38" class="cls-57" d="M245.9,199.78l3.3,2c.13.13.26.24,0,.51l-2.5,1.43c-.39.41-.53.21-.53.21l-3.48-2c-.26-.25.2-.59.2-.59s2.21-1.14,2.34-1.27C245.49,199.73,245.65,199.61,245.9,199.78Z"/><path id="Path_85" data-name="Path 85" class="cls-57" d="M241.9,203.78l3.3,2c.13.13.26.24,0,.51l-2.5,1.43c-.39.41-.53.21-.53.21l-3.48-2c-.26-.25.2-.59.2-.59s2.21-1.14,2.34-1.27C241.54,203.81,241.65,203.61,241.9,203.78Z"/><path id="Path_101" data-name="Path 101" class="cls-57" d="M235.36,213.5l3.2,1.82a.32.32,0,0,1,.09.31l-1,.68a.29.29,0,0,1-.38,0l-3.45-2c-.27-.22,0-.32,0-.32l1-.55A.72.72,0,0,1,235.36,213.5Z"/><path id="Path_138" data-name="Path 138" class="cls-26" d="M208.5,129.27l103.83,59.67-17.66,9.5L193.17,138.1Z"/><path id="Path_102" data-name="Path 102" class="cls-57" d="M232.06,215.47l3.5,1.85a.32.32,0,0,1,.09.31l-1,.68a.29.29,0,0,1-.38,0l-3.56-2c-.28-.23,0-.32,0-.32l.88-.48A.66.66,0,0,1,232.06,215.47Z"/><path id="Path_103" data-name="Path 103" class="cls-57" d="M238.11,218.56l3.45,1.76a.32.32,0,0,1,.09.31l-1,.68a.29.29,0,0,1-.38,0l-3.6-2c-.28-.23,0-.32,0-.32l.93-.49A.72.72,0,0,1,238.11,218.56Z"/><path id="Path_76-39" data-name="Path 76-39" class="cls-57" d="M252,203.28l3.3,2c.13.13.26.24,0,.51l-2.5,1.43c-.39.41-.53.21-.53.21l-3.48-2c-.26-.25.2-.59.2-.59s2.21-1.14,2.34-1.27C251.55,203.23,251.71,203.11,252,203.28Z"/><path id="Path_86" data-name="Path 86" class="cls-57" d="M248,207.37s7.9,4.38,7.9,4.38a.62.62,0,0,1,.19.6l-3.66,2c-.53.47-.85.11-.85.11L244,209.73c-.56-.48.13-.8.13-.8s2.59-1.43,2.78-1.56C247.4,207.23,247.45,207,248,207.37Z"/><path id="Path_87" data-name="Path 87" class="cls-57" d="M240.31,209.78S249.6,215,249.6,215a.73.73,0,0,1,.26.65l-3.24,2a.69.69,0,0,1-1,.05L236.31,212c-.67-.56.07-.84.07-.84s2.57-1.35,2.77-1.47C239.66,209.58,239.7,209.36,240.31,209.78Z"/><path id="Path_76-40" data-name="Path 76-40" class="cls-57" d="M258,206.78l3.3,2c.12.13.25.24-.05.51l-2.5,1.43c-.39.41-.54.21-.54.21l-3.48-2c-.26-.25.2-.59.2-.59s2.22-1.14,2.34-1.27C257.62,206.73,257.77,206.61,258,206.78Z"/><path id="Path_105" data-name="Path 105" class="cls-1" d="M265.83,220.61c-.66,1.16-4.83,5.33-1.5,10s10.5,5,15.84,2.84c2.33-1.34,7-3.84,8.66-8s-2-8.34-4.83-9C274.17,211.94,265.83,220.61,265.83,220.61Z"/><path id="Path_109" data-name="Path 109" class="cls-63" d="M289.25,217.85s2.22,10.52-5.94,14.84-21.44,3.12-20.51-7.77a10.83,10.83,0,0,1,.7-2.08C270.5,210.44,289.25,217.85,289.25,217.85Z"/><path id="Path_110" data-name="Path 110" class="cls-64" d="M268.84,219.72c-3.24,1.12-4.5,2.69-4.71,4.65s.07,4.67,3.47,6.87,9.8-.6,12.6-3,7.25-3.37,8.47-3.66,1.69-2.66,1.69-2.66Z"/><path id="Path_106" data-name="Path 106" class="cls-65" d="M266.17,226.08a8.55,8.55,0,0,0,6.33,2.17c1.67-.31,3.67,0,6.83-2.17a24.69,24.69,0,0,1,9.2-3.38c2-.15,2-1.08,2-1.08s-.49-3.46-1.58-4.71c-2.5-2.91-5.1-.13-7.6.49s-1.65.44-1.76-.49,1.8-2,5.13-3.07c-1.52-1.43-8.8-2.31-15.54,1.08-2.48,1.61-3.13,2.58-4.13,5.36S266.17,226.08,266.17,226.08Z"/><path id="Path_107" data-name="Path 107" class="cls-66" d="M281.44,217.87a14.55,14.55,0,0,1,3.4-1.56c1.72-.47,2.13-.2,2.2-.76a1.75,1.75,0,0,0-1.73-1.77h-.07a4.79,4.79,0,0,0-2.62.59,10.09,10.09,0,0,0-2.69,1.57,1.37,1.37,0,0,0-.27,1.93h0C280.21,218.45,281.44,217.87,281.44,217.87Z"/><path id="Path_108" data-name="Path 108" class="cls-67" d="M290.38,222s-5.21-3-9.88-.13a10,10,0,0,1-9.17.75s-6.23-2.07-6.58-.75a5.6,5.6,0,0,0,.5,3.25s3.16,7.2,11.25,3.59c3.38-2.13,7.51-4.28,10.17-4.75A5.87,5.87,0,0,0,290.38,222Z"/><path id="Path_112" data-name="Path 112" class="cls-28" d="M197,42.19l-.59-1.47a8,8,0,0,1,7-4c2.25,1,96,56.25,97.22,57.25s1.87,1.6,1.87,3.35,1.12,83.15-.12,84.9-6.24,3.5-6.24,3.5L226.66,91.94Z"/><path id="Path_113" data-name="Path 113" class="cls-1" d="M298.5,99.19l4.17-2.75.33,83.75s-.25,2.5-1.25,3.25a46.47,46.47,0,0,1-5.75,2.5V100.19Z"/><path id="Path_139" data-name="Path 139" class="cls-68" d="M296,101.19l6.86-4.32.34,82.77s.36,3-1.7,3.8a28.59,28.59,0,0,1-4.56,2.12l-3.34-3.72Z"/><path id="Path_111" data-name="Path 111" class="cls-69" d="M200.33,40.1l95.92,55.69c2.15,2.45,2.15,3.65,2.42,6.65l-.17,81.31s-1.1,3.49-5.3,1.49l-95.87-54.8c-2.13-1-2.42-6.65-2.42-6.65l.66-81.64C196.86,39.75,197.83,38.94,200.33,40.1Z"/><path id="Path_115" data-name="Path 115" d="M199.8,45.24,293.2,99v74.4l-93.4-53.2Z"/><path id="Path_116" data-name="Path 116" class="cls-3" d="M203.67,56.44l12.74,7.2v1.2l-12.74-7.15Z"/><path id="Path_117" data-name="Path 117" class="cls-3" d="M226.69,67.09l54.17,30.46,1,1.06L227.72,68.19Z"/><path id="Path_128" data-name="Path 128" class="cls-3" d="M227,125.62l52.28,30.18,1,.94L228,126.59Z"/><path id="Path_119" data-name="Path 119" class="cls-3" d="M226.88,87.77l35.33,21,.6.77L227.5,88.58Z"/><path id="Path_123" data-name="Path 123" class="cls-3" d="M226.88,97.77l35.33,21,.6.77L227.5,98.58Z"/><path id="Path_121" data-name="Path 121" class="cls-3" d="M226.88,91.77l53.2,30.11,1.09.8L228,92.6Z"/><path id="Path_131" data-name="Path 131" class="cls-3" d="M226.88,77.77l53.2,30.11,1.09.8L228,78.6Z"/><path id="Path_124" data-name="Path 124" class="cls-3" d="M226.88,101.77l18.67,11,.33.39-18.66-11Z"/><path id="Path_132" data-name="Path 132" class="cls-3" d="M261.88,103.77l18.67,11,.33.39-18.66-11Z"/><path id="Path_133" data-name="Path 133" class="cls-3" d="M233.78,87.94,252.65,98.6,253,99,234.13,88.33Z"/><path id="Path_125" data-name="Path 125" class="cls-3" d="M226.88,102.77l18.67,11,.33.39-18.66-11Z"/><path id="Path_120" data-name="Path 120" class="cls-3" d="M226.69,81.09l47.23,26.59.85.93L227.58,82.05Z"/><path id="Path_129" data-name="Path 129" class="cls-3" d="M226.44,116.51l20.28,11.66.24.68-20.28-11.63Z"/><path id="Path_122" data-name="Path 122" class="cls-3" d="M227,99.65l48.92,28.67.87,1-48.88-28.62Z"/><path id="Path_118" data-name="Path 118" class="cls-3" d="M226.69,73.09l38.57,21.33.74.66-38.53-21.3Z"/><path id="Path_126" data-name="Path 126" class="cls-3" d="M226.69,107.09,252,121.58l.42.57-25.26-14.48Z"/><path id="Path_130" data-name="Path 130" class="cls-3" d="M226.92,121.69l44.85,26,.84.83-44.81-26Z"/><path id="Path_127" data-name="Path 127" class="cls-3" d="M226.4,111.58l53.23,29.25.92,1.14-53.2-29.2Z"/><path id="Path_116-2" data-name="Path 116-2" class="cls-3" d="M203.67,61l12.74,6.6v3l-12.74-6.88Z"/><path id="Path_116-3" data-name="Path 116-3" class="cls-3" d="M203.76,66.36l12.75,6.39.08,1-12.75-6.44Z"/><path id="Path_116-4" data-name="Path 116-4" class="cls-3" d="M203.46,70.94l12.95,6.4.2,3.75-12.94-6.33Z"/><path id="Path_116-5" data-name="Path 116-5" class="cls-3" d="M203.46,77.94l12.95,6.4v2.6l-12.95-6.25Z"/><path id="Path_116-6" data-name="Path 116-6" class="cls-3" d="M203.8,83.24l12.75,6.29.14.8-12.75-6.2Z"/><path id="Path_116-7" data-name="Path 116-7" class="cls-3" d="M203.46,85.94l12.95,6.7v3.8l-12.74-6.68Z"/><path id="Path_116-8" data-name="Path 116-8" class="cls-3" d="M203.46,91.94l12.95,7.3v1l-12.95-7Z"/><path id="Path_134" data-name="Path 134" class="cls-3" d="M203.46,102.94l12.95,7.3v1l-12.95-7Z"/><path id="Path_116-9" data-name="Path 116-9" class="cls-3" d="M203.46,95.94l12.95,7.5v3l-12.74-6.68Z"/><path id="Path_116-10" data-name="Path 116-10" class="cls-3" d="M203.46,106.94l12.95,7.1v3.6l-12.74-6.88Z"/><path id="Path_136" data-name="Path 136" class="cls-70" d="M237.63,153.81s-1.52.78-1.71,1.17a16.26,16.26,0,0,0-.17,3.19,1.25,1.25,0,0,0,.11.39,1.49,1.49,0,0,0,.41.3l26.23,15.25a5.83,5.83,0,0,0,1.14.51c.63.19,3.31.84,4.74-.18a9.57,9.57,0,0,0,2.37-2.25l-32.12-18.38Z"/><path id="Path_135" data-name="Path 135" class="cls-71" d="M238.16,153.56l31.26,17.71s-1.92,2.92-4.92,1.67-27.81-15.75-27.81-15.75a2,2,0,0,1-.78-2.25C236.22,153.94,238.16,153.56,238.16,153.56Z"/><path id="Path_114" data-name="Path 114" class="cls-72" d="M194.81,120.81l103.75,60.31s.57,2.88-.93,4.07c-1.82,1.69-4.5,0-4.5,0l-95.44-54.56a4.7,4.7,0,0,1-2.63-3.82C194.88,124.82,194.79,122.81,194.81,120.81Z"/><path id="Path_137" data-name="Path 137" class="cls-73" d="M264,172.83v1.84a11.42,11.42,0,0,0,3.14.22,5.36,5.36,0,0,0,2.91-1.41,17.43,17.43,0,0,0,1.7-1.63l-1.7-.58a10,10,0,0,1-2.91,1.79A3.91,3.91,0,0,1,264,172.83Z"/></g></g></g></svg>