<svg xmlns="http://www.w3.org/2000/svg" viewBox="0 0 186 188"><defs><style>.cls-1{fill:#fff;}</style></defs><g id="Capa_2" data-name="Capa 2"><g id="Capa_1-2" data-name="Capa 1"><path class="cls-1" d="M57,129.21,38.11,75.74A33.17,33.17,0,0,1,35.78,65.2,8,8,0,0,1,39,58.84a12.12,12.12,0,0,1,8-2.63q7.91,0,10.54,8.83l12.87,42.63h.31l13-41.7Q86.77,56.21,95,56.21T106.31,66l13,41.7h.31L132.5,65q2.64-8.84,10.54-8.83a11.23,11.23,0,0,1,8.06,2.94,10.39,10.39,0,0,1,3.1,7.91q0,2.32-2.17,8.37L133,129.21q-4,11.32-13.49,11.32-9.62,0-12.86-10.39l-11.47-36h-.31l-11.47,36q-3.25,10.4-12.87,10.39Q61.05,140.53,57,129.21Z"/><path class="cls-1" d="M157.74,24.52a15.32,15.32,0,0,0,2.26-8,15.49,15.49,0,0,0-28.08-9A90.07,90.07,0,0,0,13.83,53.24,11.16,11.16,0,0,0,11.5,53,11.5,11.5,0,0,0,7.22,75.17a90.06,90.06,0,0,0,81,104.49,10.49,10.49,0,0,0,20.64-.58A90,90,0,0,0,157.74,24.52Zm-49,150.54a10.48,10.48,0,0,0-20.52.57A85.93,85.93,0,0,1,11.16,76l.34,0a11.5,11.5,0,0,0,6.09-21.25A85.91,85.91,0,0,1,130,11,15.48,15.48,0,0,0,155.19,27.7,85.93,85.93,0,0,1,108.7,175.06Z"/><circle class="cls-1" cx="98.5" cy="177.5" r="4.5"/><circle class="cls-1" cx="11.5" cy="64.5" r="5.5"/></g></g></svg>